<svg width="0" height="0" class="hidden">
  <symbol xmlns="http://www.w3.org/2000/svg" viewBox="0 0 95 35" id="logo">
    <g clip-path="url(#clip0)">
      <path d="M7.966 0v14.592c1.4-1.018 2.709-1.788 3.938-2.297 1.227-.509 2.373-.763 3.44-.763 2.323 0 4.256 1.011 5.796 3.029 1.54 2.017 2.31 4.582 2.31 7.694 0 3.583-1.018 6.51-3.055 8.788-2.035 2.278-4.65 3.417-7.856 3.417a7.48 7.48 0 01-2.405-.4 7.345 7.345 0 01-2.17-1.178L2.17 34.556V8.554c0-1.336-.166-2.507-.496-3.513C1.342 4.042.782 2.985 0 1.885L7.966 0zm0 31.321a13.89 13.89 0 001.634.439 7.69 7.69 0 001.45.152c1.947 0 3.519-.789 4.714-2.367 1.196-1.578 1.788-3.69 1.788-6.325 0-2.622-.598-4.684-1.787-6.186-1.196-1.502-2.825-2.253-4.9-2.253-.343 0-.73.026-1.164.07a24.86 24.86 0 00-1.73.261V31.32h-.005v.001zm37.629-9.259H31.408v.376c0 2.952.776 5.198 2.334 6.726 1.553 1.534 3.817 2.298 6.789 2.298.661 0 1.418-.045 2.27-.128a61.076 61.076 0 002.959-.388c-1.38 1.272-2.863 2.233-4.44 2.889-1.578.649-3.239.98-4.982.98-3.301 0-5.936-1.031-7.908-3.087-1.973-2.056-2.958-4.817-2.958-8.272 0-3.506 1.03-6.37 3.098-8.591 2.067-2.221 4.733-3.334 7.997-3.334 2.792 0 5 .917 6.61 2.756 1.61 1.839 2.417 4.352 2.417 7.541v.234h.001zm-6.177-2.03c0-2.087-.318-3.709-.955-4.855-.637-1.146-1.534-1.718-2.697-1.718-1.38 0-2.442.656-3.181 1.966-.738 1.311-1.126 3.233-1.152 5.765l7.985-1.158zM55.26 0v27.224c0 1.604.145 2.901.437 3.9.292.999.744 2.018 1.355 3.055h-9.359c.611-1.069 1.063-2.106 1.356-3.124.292-1.012.438-2.291.438-3.831V8.553c0-1.336-.172-2.507-.509-3.513-.344-.999-.903-2.056-1.687-3.156L55.26 0zm12.297 0v27.224c0 1.604.146 2.901.438 3.9.293.999.745 2.018 1.354 3.055h-9.351c.61-1.069 1.063-2.106 1.355-3.124.292-1.012.438-2.291.438-3.831V8.553c0-1.336-.172-2.507-.51-3.513-.343-.999-.902-2.056-1.69-3.156L67.556 0zm4.427 23.215c0-3.538 1.074-6.37 3.226-8.496 2.149-2.132 5.02-3.194 8.601-3.194 3.441 0 6.164 1.05 8.175 3.144 2.011 2.1 3.016 4.932 3.016 8.496 0 3.595-1.069 6.471-3.206 8.616-2.138 2.145-5 3.22-8.602 3.22-3.44 0-6.17-1.063-8.187-3.182-2.012-2.12-3.023-4.99-3.023-8.604zm11.45-9.896c-1.57 0-2.805.866-3.709 2.59-.902 1.731-1.353 4.118-1.353 7.166 0 3.124.464 5.587 1.393 7.388.929 1.802 2.183 2.699 3.772 2.699 1.616 0 2.882-.866 3.791-2.604.91-1.737 1.368-4.181 1.368-7.344 0-3.124-.464-5.555-1.394-7.292-.928-1.737-2.212-2.603-3.868-2.603z"></path>
    </g>
    <defs>
      <clipPath id="clip0">
        <path fill="#fff" d="M0 0h95v35H0z"></path>
      </clipPath>
    </defs>
  </symbol>
  <symbol xmlns="http://www.w3.org/2000/svg" id="arrowRight">
    <path d="M29.849 6.692c-.108-.613-.103-1.44-.358-2.026-.164-.36-.588-.48-.874-.672-.45-.26-.907-.569-1.356-.83L22.19.124c.172.115.191 1.083.224 1.271.034.189.053 1.157.225 1.273.85.53 1.74 1.005 2.589 1.535-8.338.159-16.725.326-25.054.531.098-.017.293 2.523.44 2.497 7.58-.17 15.209-.35 22.845-.481-.952.314-1.937.73-2.807 1.224-.139.073.084.762.24 1.366l.2 1.131c.138-.073.325-.154.464-.227 0 0 .049-.009.04-.056 1.473-.794 3.11-1.229 4.747-1.663.912-.258 1.832-.469 2.727-.821.521-.19.758-.28.797-.626.009.047.057.038.066.085l-.05-.283-.034-.188zm-2.31-1.099l-.099.018-.016-.095.114.077z"></path>
  </symbol>
  <symbol xmlns="http://www.w3.org/2000/svg" viewBox="0 0 32 32" id="gray_circle">
    <rect width="32" height="32" rx="16"></rect>
  </symbol>
  <symbol xmlns="http://www.w3.org/2000/svg" viewBox="0 0 710 35" id="path">
    <path opacity=".2" d="M1.11 22.37s117.334 18.706 162.48 4.072C208.737 11.81 279.468-5.25 324.29 3.28c44.823 8.53 86.544 30.75 130.238 30.75S543.293 3.28 585.46 3.28c42.166 0 101.238 1.55 123.485 3.618" stroke="#BDC6D2" stroke-width="2" stroke-miterlimit="10" stroke-linecap="round" stroke-dasharray="9 9"></path>
  </symbol>
  <symbol xmlns="http://www.w3.org/2000/svg" viewBox="0 0 22 22" id="arrowWhite">
    <path d="M21.492 11.149c-.078-.888-.074-2.086-.257-2.937-.118-.521-.424-.695-.63-.974-.323-.378-.652-.824-.976-1.202l-3.652-4.408c.124.167.138 1.57.162 1.844.024.273.038 1.676.161 1.844.612.769 1.253 1.457 1.864 2.225-6.003.23-12.042.472-18.04.77.07-.025.212 3.657.317 3.62 5.458-.247 10.951-.507 16.45-.698a10.293 10.293 0 00-2.022 1.774c-.1.106.06 1.105.174 1.98l.143 1.64c.1-.106.235-.224.334-.33 0 0 .036-.013.03-.081 1.06-1.151 2.238-1.78 3.417-2.41.657-.374 1.32-.68 1.964-1.19.375-.274.545-.405.574-.908.006.068.041.056.047.124l-.036-.41-.024-.273zM19.83 9.556l-.07.025-.013-.136.083.111z"></path>
  </symbol>
  <symbol xmlns="http://www.w3.org/2000/svg" viewBox="0 0 26 18" id="youtube">
    <path d="M13.576 17.976l-5.334-.097c-1.727-.034-3.459.034-5.152-.319C.514 17.033.332 14.452.14 12.286A37.035 37.035 0 01.477 3.12C.756 1.426 1.86.415 3.566.305c5.758-.4 11.555-.352 17.3-.166.607.017 1.218.11 1.817.217C25.636.874 25.708 3.8 25.9 6.264c.19 2.488.11 4.99-.255 7.462-.293 2.046-.853 3.762-3.217 3.928-2.962.217-5.856.391-8.827.336 0-.013-.017-.014-.025-.014zm-3.136-5.181c2.232-1.283 4.422-2.544 6.641-3.818-2.236-1.283-4.421-2.544-6.641-3.818v7.636z"></path>
  </symbol>
  <symbol xmlns="http://www.w3.org/2000/svg" viewBox="0 0 9 18" id="facebook">
    <path fill-rule="evenodd" clip-rule="evenodd" d="M5.842 18V9.79h2.653l.398-3.201H5.842V4.547c0-.927.247-1.558 1.527-1.558L9 2.988V.126C8.718.086 7.75 0 6.623 0 4.27 0 2.66 1.492 2.66 4.23v2.36H0v3.2h2.66V18h3.182z"></path>
  </symbol>
  <symbol xmlns="http://www.w3.org/2000/svg" viewBox="0 0 18 18" id="linkedin">
    <path d="M14.25 0H3.75A3.75 3.75 0 000 3.75v10.5A3.75 3.75 0 003.75 18h10.5A3.75 3.75 0 0018 14.25V3.75A3.75 3.75 0 0014.25 0zM6 14.25H3.75V6H6v8.25zM4.875 5.049a1.318 1.318 0 01-1.313-1.323c0-.73.589-1.323 1.313-1.323s1.313.592 1.313 1.323c0 .73-.588 1.323-1.313 1.323zM15 14.25h-2.25v-4.203c0-2.526-3-2.335-3 0v4.203H7.5V6h2.25v1.324C10.797 5.384 15 5.24 15 9.18v5.069z"></path>
  </symbol>
  <symbol xmlns="http://www.w3.org/2000/svg" viewBox="0 0 18 18" id="insta">
    <path d="M6 9a3 3 0 116 0 3 3 0 01-6 0zM4.38 9a4.622 4.622 0 109.243 0A4.622 4.622 0 004.38 9zm8.346-4.805a1.08 1.08 0 102.161 0 1.08 1.08 0 00-2.161 0zm-7.361 12.13c-.878-.04-1.355-.185-1.672-.309a2.8 2.8 0 01-1.035-.673 2.78 2.78 0 01-.673-1.034c-.124-.317-.27-.794-.31-1.672-.043-.949-.052-1.234-.052-3.637s.01-2.688.052-3.637c.04-.878.187-1.354.31-1.672a2.8 2.8 0 01.673-1.035c.315-.315.615-.51 1.035-.673.317-.123.794-.27 1.672-.31.949-.043 1.234-.052 3.636-.052 2.404 0 2.688.01 3.638.052.877.04 1.353.188 1.671.31.42.163.72.358 1.035.673.315.315.51.615.673 1.035.124.317.27.794.31 1.672.044.95.052 1.234.052 3.637s-.008 2.688-.052 3.637c-.04.878-.187 1.355-.31 1.672a2.79 2.79 0 01-.673 1.034c-.315.315-.615.51-1.035.673-.317.124-.794.27-1.671.31-.95.043-1.234.052-3.638.052-2.402 0-2.687-.009-3.636-.052zM5.29.056C4.332.098 3.677.25 3.105.473A4.416 4.416 0 001.511 1.51 4.39 4.39 0 00.473 3.104C.25 3.677.098 4.331.055 5.29.01 6.25 0 6.556 0 9s.01 2.75.055 3.71c.043.959.195 1.613.418 2.185a4.4 4.4 0 001.038 1.594c.5.5 1.002.808 1.594 1.038.573.223 1.227.375 2.185.418C6.25 17.99 6.556 18 9 18c2.445 0 2.751-.01 3.711-.055.958-.043 1.612-.195 2.185-.418a4.426 4.426 0 001.594-1.038c.5-.5.808-1.002 1.038-1.594.223-.572.375-1.226.418-2.185.044-.96.054-1.266.054-3.71s-.01-2.75-.054-3.71c-.043-.959-.195-1.613-.418-2.185a4.426 4.426 0 00-1.038-1.594c-.5-.5-1.002-.809-1.594-1.038C14.323.25 13.67.098 12.712.055 11.752.01 11.445 0 9.002 0 6.555 0 6.25.01 5.29.055z"></path>
  </symbol>
  <symbol xmlns="http://www.w3.org/2000/svg" viewBox="0 0 15 18" id="tiktok">
    <path fill-rule="evenodd" clip-rule="evenodd" d="M10.918 0c.289 2.554 1.674 4.077 4.082 4.24v2.872c-1.396.14-2.618-.329-4.04-1.215v5.374c0 6.826-7.23 8.96-10.136 4.066C-1.044 12.19.1 6.664 6.09 6.443v3.03a8.466 8.466 0 00-1.39.35c-1.333.465-2.088 1.334-1.878 2.868.404 2.938 5.64 3.807 5.204-1.933V.005h2.891V0z"></path>
  </symbol>
</svg>

